<svg xmlns="http://www.w3.org/2000/svg" viewBox="0 0 32 32">
  <path d="M14.054 18.23l-5.208-1.541a.362.362 0 01-.208-.573l2.625-3.516a.365.365 0 01.521-.078l3.745 2.734a.364.364 0 01-.01.599l-1.234.932a.362.362 0 00-.047.557.365.365 0 00.557.031l1.234-.932a1.093 1.093 0 00.031-1.807L12.516 11.9a1.094 1.094 0 00-1.563.234l-2.625 3.516a1.089 1.089 0 00.625 1.724l5.214 1.547a.364.364 0 01-.01.703zm7.865-4.318a2.188 2.188 0 00-2.182 2.182c0 .109.016.214.031.318l-2.109 1.266a.364.364 0 00-.125.5.365.365 0 00.5.125l2.109-1.266a2.166 2.166 0 001.776.922 2.182 2.182 0 100-4.365zm0 3.641a1.458 1.458 0 111.458-1.458 1.46 1.46 0 01-1.458 1.458z" style="fill:#f90"/>
  <path d="M30 20.932v-2.067a.365.365 0 00-.365-.365h-5.089a.365.365 0 00-.365.365v2.067a.365.365 0 00.365.365h5.089a.365.365 0 00.365-.365zm-5.089-1.702h4.359v1.333h-4.359zm-7.172 2.87c-2.625 1.938-6.427 2.964-9.708 2.964a15.837 15.837 0 01-6.432-1.333.365.365 0 01-.057-.625c.818-.708 2.203-1.906 2.844-2.479a.365.365 0 01.464-.021 13.203 13.203 0 004.734.896c1.708 0 3.38-.313 4.854-.911a.365.365 0 01.479.203l.714 1.729a.365.365 0 01-.13.458l-.005.005zm9.265.167c-.411 0-.745-.333-.745-.745 0-.328.438-.943.63-1.224a.089.089 0 01.151 0c.193.281.63.896.63 1.224a.746.746 0 01-.745.745z" style="fill:#f90"/>
  <path d="M30.37 24.838a.365.365 0 00-.417.307c-.651 3.792-5.854 6.667-11.953 6.667-4.005 0-7.714-1.339-9.75-3.51-.219-.234-.474-.458-.76-.682a.365.365 0 00-.516.057l-.677.839a.365.365 0 00.052.516c.292.229.562.458.786.698 2.25 2.401 6.266 3.828 10.865 3.828 7.005 0 12.932-3.464 13.677-8.01a.365.365 0 00-.307-.427z" style="fill:#f90"/>
</svg>
