<svg xmlns="http://www.w3.org/2000/svg" viewBox="0 0 32 32">
  <path d="M16 2a14 14 0 1014 14A14 14 0 0016 2zm7.975 18.5a.5.5 0 01-.5.5h-1a.5.5 0 01-.5-.5v-1.031h-1.781V20.5a.5.5 0 01-.5.5h-1a.5.5 0 01-.5-.5v-1.031h-.656a.5.5 0 01-.5-.5v-1a.5.5 0 01.5-.5h.656V16.03h-.656a.5.5 0 01-.5-.5v-1a.5.5 0 01.5-.5h.656V12.5a.5.5 0 01.5-.5h1a.5.5 0 01.5.5v1.531h1.781V12.5a.5.5 0 01.5-.5h1a.5.5 0 01.5.5v1.531h.656a.5.5 0 01.5.5v1a.5.5 0 01-.5.5h-.656V17.47h.656a.5.5 0 01.5.5v1a.5.5 0 01-.5.5h-.656zm-11.006-4.406a4.459 4.459 0 011.225-2.762A4.459 4.459 0 0016.956 12a4.344 4.344 0 012.3.644.406.406 0 01.169.544l-.594 1.05a.4.4 0 01-.556.15 2.662 2.662 0 00-1.287-.344 2.4 2.4 0 00-1.756.7 2.381 2.381 0 00-.719 1.756A2.425 2.425 0 0016.956 19a2.662 2.662 0 001.294-.344.4.4 0 01.556.15l.594 1.05a.406.406 0 01-.169.544 4.344 4.344 0 01-2.3.644 4.459 4.459 0 01-2.756-1.331 4.459 4.459 0 01-1.225-2.762z" style="fill:#9b4f96"/>
  <path d="M20.194 16.031h1.781v1.438h-1.781z" style="fill:#fff"/>
</svg>
