<svg xmlns="http://www.w3.org/2000/svg" viewBox="0 0 32 32">
  <path d="M16.906 12.5h2.719v2.594h-2.719zm-3.531 0h2.719v2.594h-2.719zm-3.5 0h2.719v2.594H9.875zm-3.531 0h2.719v2.594H6.344zm10.625-3.281h2.719v2.594h-2.719zm-3.563 0h2.719v2.594h-2.719zm-3.5 0h2.719v2.594H9.906zm-3.562 0h2.719v2.594H6.344zm7.094-3.25h2.719v2.594h-2.719z" style="fill:#019bc6"/>
  <path d="M28.844 13.469c-.625-.438-2.094-.625-3.219-.469a4.654 4.654 0 00-.375-2.656c-1.438-2.5-4.281-3.219-6.781-1.906-.281.156-.531.313-.781.5v-3.5c0-.344-.281-.625-.625-.625H2.438c-.344 0-.625.281-.625.625v10.625c0 .344.281.625.625.625h1.875c.031.25.094.5.188.719 1.156 2.688 3.656 4.375 6.5 4.375.719 0 1.438-.094 2.125-.281 1.094-.313 2.063-.906 2.813-1.688.75.781 1.719 1.375 2.813 1.688 2.563.719 5.219-.094 6.813-2.063.844-1.031 1.313-2.281 1.438-3.563.5-.313.844-.719 1.063-1.219.406-.938.25-2.063-.406-2.938zM11 19.594c-2.406 0-4.5-1.344-5.469-3.5a3.71 3.71 0 01-.281-1.094h15.625a5.595 5.595 0 01-1.063 2.406c-.813 1-2.063 1.688-3.375 1.906-1.25.219-2.531-.031-3.594-.656-.344-.219-.625-.469-.906-.75-.219-.25-.594-.281-.844-.094-.25.219-.281.594-.094.844.375.438.781.813 1.219 1.125 1.281.969 2.875 1.469 4.5 1.469.469 0 .969-.063 1.438-.156a6.93 6.93 0 003.938-2.219c.844-1.031 1.375-2.281 1.5-3.563V15h1.25c.031.219.063.406.063.625 0 1.031-.375 2.031-1 2.844-1.313 1.625-3.438 2.281-5.469 1.719-.906-.25-1.719-.75-2.375-1.406-.219-.25-.594-.281-.844-.094-.25.219-.281.594-.094.844.781.906 1.844 1.563 3.031 1.906 2.906.813 5.906-.156 7.656-2.438.75-.906 1.188-1.969 1.313-3.094h.875c.031.188.063.344.063.531 0 .781-.219 1.531-.625 2.188-.531.844-1.375 1.5-2.313 1.781-1.156.344-2.406.188-3.469-.406-1.031-.594-1.781-1.594-2.063-2.781h2.125c.344 0 .625-.281.625-.625s-.281-.625-.625-.625H2.438v-9.344H16.03v3.344c0 .344.281.625.625.625s.625-.281.625-.625V6.063c.188-.156.375-.281.563-.406 2.031-1.063 4.438-.5 5.594 1.25.438.656.656 1.438.625 2.219-.031.719-.281 1.406-.719 2-.563.75-1.438 1.281-2.406 1.5-.344.063-.563.406-.5.75.063.313.344.531.656.531h.094c1.281-.281 2.406-.969 3.188-1.938.563-.688.906-1.531.969-2.438.031-.906-.156-1.781-.563-2.594-.594-1.188-1.594-2.125-2.813-2.656a5.473 5.473 0 00-3.844-.125c-.219.063-.406.156-.625.25v-.719c0-.344-.281-.625-.625-.625h-3.969c-.344 0-.625.281-.625.625v3.344H2.438v9.344h.875c.031.219.063.406.063.625 0 2.5 1.75 4.656 4.188 5.156 2.438.5 4.875-.75 5.875-3 .125-.281.219-.563.281-.844h.844c.031.344.094.656.188.969.844 2.531 3.281 4.281 6 4.281 3.469 0 6.281-2.813 6.281-6.281 0-.219-.031-.406-.063-.625h.875c.031.313.094.594.188.844 1.031 2.344 3.594 3.563 6.094 2.875 2.5-.688 4.125-3.094 3.813-5.625-.063-.344-.406-.563-.75-.5-.344.063-.563.406-.5.75.25 1.969-1.063 3.813-3 4.313-1.969.531-4.031-.406-4.906-2.188a4.036 4.036 0 01-.281-1.094h.875c.344 0 .625-.281.625-.625s-.281-.625-.625-.625h-1.813c-.344 0-.625.281-.625.625s.281.625.625.625z" style="fill:#019bc6"/>
</svg>
