<svg xmlns="http://www.w3.org/2000/svg" viewBox="0 0 32 32">
  <path d="M23.313 10.281c-.031-.031-.062-.063-.094-.094-.031-.031-.063-.063-.094-.094-.031-.031-.063-.063-.094-.094-.031-.031-.063-.063-.094-.094-.031-.031-.063-.063-.094-.094-.031-.031-.063-.063-.094-.094-.031-.031-.063-.063-.094-.094-.031-.031-.063-.063-.094-.094-.031-.031-.063-.063-.094-.094-.031-.031-.063-.063-.094-.094-.031-.031-.063-.063-.094-.094-.031-.031-.063-.063-.094-.094a7.485 7.485 0 00-1.594-1.094c-.625-.344-1.281-.625-1.969-.813-.688-.188-1.406-.281-2.125-.281-.719 0-1.438.094-2.125.281-.688.188-1.344.469-1.969.813a7.485 7.485 0 00-1.594 1.094c-.031.031-.063.063-.094.094-.031.031-.063.063-.094.094-.031.031-.063.063-.094.094-.031.031-.063.063-.094.094-.031.031-.063.063-.094.094-.031.031-.063.063-.094.094-.031.031-.063.063-.094.094-.031.031-.063.063-.094.094-.031.031-.063.063-.094.094-.031.031-.063.063-.094.094-.031.031-.063.063-.094.094-.031.031-.063.063-.094.094-.594.719-1.031 1.563-1.281 2.469-.25.906-.313 1.844-.188 2.781.125.938.406 1.844.844 2.688.438.844 1.031 1.594 1.75 2.188.719.594 1.531 1.031 2.438 1.281.906.25 1.844.313 2.781.188.938-.125 1.844-.406 2.688-.844.844-.438 1.594-1.031 2.188-1.75.594-.719 1.031-1.531 1.281-2.438.25-.906.313-1.844.188-2.781-.125-.938-.406-1.844-.844-2.688-.438-.844-1.031-1.594-1.75-2.188zm-.406 7.281c-.188.719-.5 1.406-.938 2-.438.594-.969 1.094-1.594 1.469-.625.375-1.313.625-2.031.75-.719.125-1.438.094-2.156-.094-.719-.188-1.406-.5-2-.938-.594-.438-1.094-.969-1.469-1.594-.375-.625-.625-1.313-.75-2.031-.125-.719-.094-1.438.094-2.156.188-.719.5-1.406.938-2 .438-.594.969-1.094 1.594-1.469.625-.375 1.313-.625 2.031-.75.719-.125 1.438-.094 2.156.094.719.188 1.406.5 2 .938.594.438 1.094.969 1.469 1.594.375.625.625 1.313.75 2.031.125.719.094 1.438-.094 2.156z" style="fill:#336791"/>
  <path d="M18.75 13.625c-.531 0-1.031.094-1.5.281-.469.188-.875.469-1.219.813-.344.344-.625.75-.813 1.219-.188.469-.281.969-.281 1.5s.094 1.031.281 1.5c.188.469.469.875.813 1.219.344.344.75.625 1.219.813.469.188.969.281 1.5.281s1.031-.094 1.5-.281c.469-.188.875-.469 1.219-.813.344-.344.625-.75.813-1.219.188-.469.281-.969.281-1.5s-.094-1.031-.281-1.5c-.188-.469-.469-.875-.813-1.219-.344-.344-.75-.625-1.219-.813-.469-.188-.969-.281-1.5-.281zm0 5.25c-.281 0-.563-.063-.813-.188-.25-.125-.469-.281-.656-.469a1.91 1.91 0 01-.469-.656c-.125-.25-.188-.531-.188-.813s.063-.563.188-.813c.125-.25.281-.469.469-.656.188-.188.406-.344.656-.469.25-.125.531-.188.813-.188s.563.063.813.188c.25.125.469.281.656.469.188.188.344.406.469.656.125.25.188.531.188.813s-.063.563-.188.813c-.125.25-.281.469-.469.656-.188.188-.406.344-.656.469-.25.125-.531.188-.813.188z" style="fill:#336791"/>
</svg>
